HIERARCHY
ROOT Hips
{
	OFFSET 0.00000 0.00000 0.00000
	CHANNELS 6 Xposition Yposition Zposition Zrotation Yrotation Xrotation 
	JOINT LHipJoint
	{
		OFFSET 0 0 0
		CHANNELS 3 Zrotation Yrotation Xrotation
		JOINT LeftHip
		{
			OFFSET 1.60223 -1.58443 0.78595
			CHANNELS 3 Zrotation Yrotation Xrotation
			JOINT LeftKnee
			{
				OFFSET 2.21690 -6.09089 0.00000
				CHANNELS 3 Zrotation Yrotation Xrotation
				JOINT LeftAnkle
				{
					OFFSET 2.34805 -6.45122 0.00000
					CHANNELS 3 Zrotation Yrotation Xrotation
					JOINT LeftToe
					{
						OFFSET 0.35452 -0.97402 1.38549
						CHANNELS 3 Zrotation Yrotation Xrotation
						End Site
						{
							OFFSET 0.00000 -0.00000 0.82816
						}
					}
				}
			}
		}
	}
	JOINT RHipJoint
	{
		OFFSET 0 0 0
		CHANNELS 3 Zrotation Yrotation Xrotation
		JOINT RightHip
		{
			OFFSET -1.56524 -1.58443 0.78595
			CHANNELS 3 Zrotation Yrotation Xrotation
			JOINT RightKnee
			{
				OFFSET -2.15558 -5.92241 0.00000
				CHANNELS 3 Zrotation Yrotation Xrotation
				JOINT RightAnkle
				{
					OFFSET -2.35077 -6.45870 0.00000
					CHANNELS 3 Zrotation Yrotation Xrotation
					JOINT RightToe
					{
						OFFSET -0.26910 -0.73935 1.33295
						CHANNELS 3 Zrotation Yrotation Xrotation
						End Site
						{
							OFFSET -0.00000 -0.00000 0.75962
						}
					}
				}
			}
		}
	}
	JOINT lowerback
	{
		OFFSET 0 0 0
		CHANNELS 3 Zrotation Yrotation Xrotation
		JOINT Chest
		{
			OFFSET -0.05489 1.97104 -0.02993
			CHANNELS 3 Zrotation Yrotation Xrotation
			JOINT Chest2
			{
				OFFSET -0.00702 1.94230 0.13626
				CHANNELS 3 Zrotation Yrotation Xrotation
				JOINT lowerneck
				{
					OFFSET 0 0 0
					CHANNELS 3 Zrotation Yrotation Xrotation
					JOINT Neck
					{
						OFFSET -0.07858 1.62869 -0.02510
						CHANNELS 3 Zrotation Yrotation Xrotation
						JOINT Head
						{
							OFFSET 0.13978 1.59213 -0.29859
							CHANNELS 3 Zrotation Yrotation Xrotation
							End Site
							{
								OFFSET 0.05353 1.64420 -0.10000
							}
						}
					}
				}
				JOINT LeftCollar
				{
					OFFSET 0 0 0
					CHANNELS 3 Zrotation Yrotation Xrotation
					JOINT LeftShoulder
					{
						OFFSET 3.48263 1.15278 0.52941
CHANNELS 3 Zrotation Xrotation Yrotation
						JOINT LeftElbow
						{
OFFSET 0 -4.592070 -0.000000
CHANNELS 3 Zrotation Xrotation Yrotation
							JOINT LeftWrist
							{
OFFSET 0 -2.981090 -0.000000
CHANNELS 3 Zrotation Xrotation Yrotation
								JOINT lhand
								{
									OFFSET 0 0 0
CHANNELS 3 Zrotation Xrotation Yrotation
									JOINT LFingers
									{
OFFSET 0 -0.480200 -0.000000
CHANNELS 3 Zrotation Xrotation Yrotation
										End Site
										{
OFFSET 0 -0.387150 -0.000000
										}
									}
								}
								JOINT LThumb
								{
OFFSET 0 0.000000 0.000000
CHANNELS 3 Zrotation Xrotation Yrotation
									End Site
									{
OFFSET 0 -0.393060 0.393060
									}
								}
							}
						}
					}
				}
				JOINT RightCollar
				{
					OFFSET 0 0 0
					CHANNELS 3 Zrotation Yrotation Xrotation
					JOINT RightShoulder
					{
						OFFSET -3.52496 1.12722 0.24548
CHANNELS 3 Zrotation Xrotation Yrotation
						JOINT RightElbow
						{
OFFSET 0 -4.765080 -0.000000
CHANNELS 3 Zrotation Xrotation Yrotation
							JOINT RightWrist
							{
OFFSET 0 -2.789020 -0.000000
CHANNELS 3 Zrotation Xrotation Yrotation
								JOINT rhand
								{
									OFFSET 0 0 0
CHANNELS 3 Zrotation Xrotation Yrotation
									JOINT RFingers
									{
OFFSET 0 -0.721300 -0.000000
CHANNELS 3 Zrotation Xrotation Yrotation
										End Site
										{
OFFSET 0 -0.581530 -0.000000
										}
									}
								}
								JOINT RThumb
								{
OFFSET 0 0.000000 0.000000
CHANNELS 3 Zrotation Xrotation Yrotation
									End Site
									{
OFFSET 0 -0.590410 0.590410
									}
								}
							}
						}
					}
				}
			}
		}
	}
}
MOTION
Frames: 5
Frame Time: 0.008333333333333333
22.519600 16.146400 -2.331200 4.109500 -67.478200 3.385500 0.000000 0.000000 0.000000 -11.792600 -19.378300 -14.928400 2.655700 10.115600 29.351900 0.853400 -9.699300 -16.824200 2.723700 -10.233700 -29.736800 0.000000 0.000000 0.000000 20.247400 -2.307300 -15.177500 -1.472300 -7.667500 21.708600 -1.595600 -15.333700 -33.595000 -0.817800 -5.770500 16.119800 7.271800 4.842200 0.637200 -1.818300 6.588700 -3.411200 -6.094100 3.065400 -2.874300 1.167700 18.401200 -1.495400 0.329800 24.590600 9.102200 0.761200 12.239800 3.323000 0.000000 -0.000000 0.000000 -6.396100 9.505100 6.135700 20.694900 -31.470500 5.889900 19.549200 28.988100 -38.974200 0.000000 0.000000 0.000000 -7.125000 0.000000 0.000000 -22.732800 69.394000 13.523600 0.000000 -0.000000 0.000000 2.989300 -3.943300 19.953900 -8.616300 -14.546900 -1.101800 -16.128700 -24.714300 -37.550000 0.000000 0.000000 0.000000 7.125000 0.000000 -0.000000 9.502100 -8.216900 10.903300
22.578061 16.121036 -1.952026 1.314068 -69.315787 5.671082 0.000000 0.000000 0.000000 -12.694265 -17.930699 -13.875788 2.677471 10.153710 29.475835 1.245281 -8.071178 -19.959517 2.743279 -10.267150 -29.846497 0.000000 0.000000 0.000000 19.813053 -1.651982 -14.254914 -1.438353 -7.582485 21.452808 -1.444940 -15.098516 -32.496573 -0.675416 -5.252707 14.631363 5.106122 6.328002 -0.531630 -0.931216 8.469458 -3.832653 -3.880965 4.062368 -2.794774 1.762890 16.008319 -2.353113 2.179633 21.185993 10.752148 1.283347 10.627811 3.879880 0.000000 0.000000 0.000000 -6.517392 10.224179 1.602727 20.267348 -30.963013 5.668286 23.445574 27.985554 -28.992053 0.000000 0.000000 0.000000 -7.125000 0.000000 0.000000 -8.777324 60.890614 3.456095 0.000000 0.000000 0.000000 4.445283 1.289685 -1.782864 -13.065382 -21.362584 -2.491165 -3.937331 5.308749 -38.836500 0.000000 0.000000 0.000000 7.125000 0.000000 0.000000 15.952696 -7.616098 18.610312
22.656052 16.137947 -1.565637 1.560452 -70.828368 5.065983 0.000000 0.000000 0.000000 -14.374996 -15.771491 -13.170168 2.562996 9.951475 28.819851 1.231689 -9.560186 -19.967636 2.518309 -9.870665 -28.559289 0.000000 0.000000 0.000000 18.134670 0.584912 -12.786343 -1.411109 -7.513360 21.245381 -1.314905 -16.611950 -33.116136 -0.529848 -4.663285 12.951006 2.926017 6.707319 -1.598899 -0.930233 8.903901 -3.890940 -2.581508 4.343824 -2.531625 0.116749 12.211305 -2.766360 5.140231 15.895647 10.020996 2.190398 8.077145 3.291901 0.000000 0.000000 0.000000 -5.848953 10.605969 -4.665837 20.190150 -30.870744 5.628626 35.522869 38.138753 -34.035530 0.000000 0.000000 0.000000 -7.125000 0.000000 0.000000 4.353793 69.623121 -2.567427 0.000000 0.000000 0.000000 5.955068 3.527004 -6.839689 -15.239428 -24.478494 -3.324602 -2.001034 7.794373 -36.225630 0.000000 0.000000 0.000000 7.125000 0.000000 0.000000 16.807605 -4.913738 18.990918
22.754602 16.138613 -1.165994 6.670021 -72.201726 -0.069541 0.000000 0.000000 0.000000 -17.598604 -11.776763 -13.549102 2.414721 9.681234 27.950426 0.960397 -12.806573 -18.424234 2.111897 -9.094967 -26.093075 0.000000 0.000000 0.000000 14.670523 2.616393 -12.459076 -1.574814 -7.917655 22.464415 -1.357634 -17.069969 -33.801768 -0.569661 -4.830823 13.427261 -1.259908 5.983330 -2.858814 -0.328696 7.952045 -3.491181 0.426104 3.984217 -2.122343 -4.101698 7.137396 -3.352984 7.571839 9.198638 8.676916 3.502810 4.705668 2.823331 0.000000 0.000000 0.000000 -7.367235 10.298643 -7.978004 20.875355 -31.682324 5.984472 34.970097 36.403495 -33.808542 0.000000 0.000000 0.000000 -7.125000 0.000000 0.000000 3.608595 69.204600 -2.094237 0.000000 0.000000 0.000000 4.709862 4.036598 -8.749875 -14.839578 -23.922125 -3.160557 -1.618848 7.989222 -36.049136 0.000000 0.000000 0.000000 7.125000 0.000000 0.000000 17.000434 -4.708964 19.172523
22.876248 16.113152 -0.772618 7.177207 -74.313258 -1.307444 0.000000 0.000000 0.000000 -19.219614 -9.559744 -13.035438 2.407237 9.667281 27.905818 0.971609 -13.576950 -18.725783 1.640753 -8.073755 -22.938478 0.000000 0.000000 0.000000 13.015333 4.181036 -12.336473 -1.740194 -8.302443 23.636713 -1.228142 -17.272707 -33.239699 -0.605254 -4.979384 13.849856 -3.996690 5.409290 -3.317144 0.886825 7.271921 -2.902168 3.217372 3.712577 -1.755992 -7.866940 1.954755 -2.555531 9.522477 2.370759 6.617528 4.218922 1.263162 2.149516 0.000000 0.000000 0.000000 -9.101025 10.075840 -11.228976 22.148009 -33.143784 6.666666 34.413234 34.938686 -35.066804 0.000000 0.000000 0.000000 -7.125000 0.000000 0.000000 2.010437 70.363787 -1.219422 0.000000 0.000000 0.000000 3.135434 4.621036 -8.246540 -15.177811 -24.393280 -3.299075 -1.259181 6.638270 -35.363991 0.000000 0.000000 0.000000 7.125000 0.000000 0.000000 17.166866 -4.021959 19.185019
